<!-- Generated by IcoMoon.io -->
<svg version="1.1" xmlns="http://www.w3.org/2000/svg" width="1024" height="1024" viewBox="0 0 1024 1024">
<title></title>
<g id="icomoon-ignore">
</g>
<path fill="#afb1b8" d="M1024.269 1024.525h0.256v-375.796c0-183.8-39.547-325.389-254.441-325.389-103.323 0-172.632 56.656-200.961 110.444h-2.971v-93.283h-203.778v683.973h212.179v-338.657c0-89.185 16.905-175.45 127.348-175.45 108.805 0 110.444 101.787 110.444 181.136v333.022h211.923zM16.905 340.501h212.435v684.024h-212.435v-684.024zM123.045 0c-67.956 0-123.045 55.089-123.045 123.045v0c0 67.875 55.119 124.172 123.045 124.172 67.875 0 122.994-56.246 122.994-124.172-0.029-67.926-55.072-122.987-122.989-123.045h-0.006z"></path>
</svg>
