<!-- Generated by IcoMoon.io -->
<svg version="1.1" xmlns="http://www.w3.org/2000/svg" width="1024" height="1024" viewBox="0 0 1024 1024">
<title></title>
<g id="icomoon-ignore">
</g>
<path fill="#fff" d="M1023.501 301.21c-2.356-54.454-11.167-91.849-23.769-124.275-13.584-35.585-33.75-65.909-59.223-90.831l-0.045-0.044c-24.959-25.362-55.2-45.446-88.948-58.479l-1.723-0.585c-32.631-12.602-69.821-21.361-124.275-23.769-54.812-2.613-72.229-3.227-211.36-3.227-139.079 0-156.496 0.615-211.155 3.022-54.402 2.356-91.849 11.167-124.224 23.769-35.605 13.577-65.947 33.745-90.883 59.224l-0.043 0.045c-25.34 24.964-45.407 55.203-58.428 88.946l-0.585 1.724c-12.653 32.631-21.413 69.821-23.82 124.275-2.613 54.812-3.227 72.229-3.227 211.36 0 139.079 0.615 156.496 3.022 211.155 2.408 54.454 11.219 91.849 23.82 124.275 13.653 35.553 33.789 65.862 59.183 90.842l0.034 0.033c25.613 26.023 56.656 46.206 90.67 59.013 32.631 12.653 69.873 21.464 124.275 23.82 54.658 2.408 72.075 3.022 211.155 3.022 139.131 0 156.547-0.615 211.155-3.022 54.454-2.356 91.849-11.167 124.275-23.769 69.073-27.214 122.725-80.866 149.321-148.164l0.618-1.775c12.602-32.631 21.413-69.873 23.82-124.275 2.408-54.658 2.971-72.075 2.971-211.155s-0.205-156.496-2.561-211.155zM931.293 719.524c-2.254 50.048-10.655 77.044-17.622 95.076-17.672 44.806-52.5 79.601-96.178 96.827l-1.152 0.401c-17.929 7.018-45.182 15.419-95.025 17.622-54.044 2.408-70.231 3.022-206.954 3.022-136.672 0-153.115-0.615-206.954-3.022-50.048-2.203-77.044-10.604-95.076-17.622-23.069-8.615-42.717-21.641-58.77-38.176l-0.037-0.039c-16.547-16.118-29.581-35.756-37.902-57.712l-0.364-1.095c-6.967-18.032-15.368-45.233-17.571-95.076-2.408-54.044-3.022-70.282-3.022-206.954 0-136.723 0.615-153.166 3.022-206.954 2.203-50.048 10.604-77.044 17.571-95.076 8.603-23.124 21.709-42.802 38.368-58.81l0.052-0.049c16.144-16.545 35.819-29.566 57.815-37.853l1.096-0.362c17.929-7.018 45.182-15.368 95.025-17.622 54.044-2.356 70.282-2.971 206.954-2.971 136.877 0 153.115 0.615 206.954 2.971 50.048 2.203 77.044 10.604 95.076 17.622 22.181 8.196 42.415 21.208 58.808 38.215 17.007 16.649 30.019 36.627 38.266 58.91 6.967 17.929 15.368 45.182 17.571 95.025 2.408 54.044 3.022 70.231 3.022 206.954 0 136.672-0.615 152.654-3.022 206.749z"></path>
<path fill="#fff" d="M514.158 249.164c-145.328 0.058-263.12 117.869-263.149 263.198v0.003c2.914 143.139 119.637 258.059 263.2 258.059s260.287-114.92 263.196-257.787l0.004-0.272c-0.029-145.35-117.85-263.171-263.197-263.2h-0.003zM514.158 683.051c-94.284-0.015-170.711-76.451-170.711-170.737 0-94.295 76.442-170.737 170.737-170.737 0.009 0 0.018 0 0.027 0h-0.001c94.31 0 170.763 76.453 170.763 170.763s-76.453 170.763-170.763 170.763v0zM849.229 238.766c0 33.95-27.522 61.472-61.472 61.472s-61.472-27.522-61.472-61.472v0c0-33.95 27.522-61.472 61.472-61.472s61.472 27.522 61.472 61.472v0z"></path>
</svg>
