<!-- Generated by IcoMoon.io -->
<svg version="1.1" xmlns="http://www.w3.org/2000/svg" width="1024" height="1024" viewBox="0 0 1024 1024">
<title></title>
<g id="icomoon-ignore">
</g>
<path d="M1015.249 304.611c-2.318-53.575-10.986-90.367-23.385-122.27-13.365-35.011-33.205-64.845-58.268-89.366l-0.045-0.044c-24.557-24.953-54.309-44.713-87.513-57.535l-1.695-0.575c-32.105-12.399-68.694-21.017-122.27-23.385-53.928-2.571-71.064-3.175-207.95-3.175-136.835 0-153.971 0.605-207.749 2.973-53.525 2.318-90.367 10.986-122.22 23.385-35.031 13.358-64.883 33.201-89.416 58.269l-0.043 0.045c-24.931 24.561-44.674 54.312-57.485 87.511l-0.575 1.696c-12.449 32.105-21.067 68.694-23.436 122.27-2.571 53.928-3.175 71.064-3.175 207.95 0 136.835 0.605 153.971 2.973 207.749 2.37 53.575 11.038 90.367 23.436 122.27 13.433 34.979 33.244 64.8 58.228 89.377l0.034 0.033c25.2 25.603 55.742 45.461 89.207 58.061 32.105 12.449 68.746 21.118 122.27 23.436 53.777 2.37 70.913 2.973 207.749 2.973 136.887 0 154.022-0.605 207.749-2.973 53.575-2.318 90.367-10.986 122.27-23.385 67.959-26.775 120.745-79.561 146.912-145.774l0.608-1.747c12.399-32.105 21.067-68.746 23.436-122.27 2.37-53.777 2.923-70.913 2.923-207.749s-0.202-153.971-2.52-207.749zM924.528 716.176c-2.217 49.241-10.483 75.801-17.338 93.542-17.387 44.083-51.653 78.317-94.626 95.265l-1.133 0.394c-17.64 6.905-44.453 15.17-93.492 17.338-53.172 2.37-69.098 2.973-203.615 2.973-134.467 0-150.645-0.605-203.615-2.973-49.241-2.167-75.801-10.433-93.542-17.338-22.697-8.476-42.028-21.292-57.822-37.56l-0.037-0.039c-16.28-15.858-29.104-35.179-37.291-56.781l-0.358-1.077c-6.855-17.741-15.12-44.503-17.287-93.542-2.37-53.172-2.973-69.149-2.973-203.615 0-134.517 0.605-150.695 2.973-203.615 2.167-49.241 10.433-75.801 17.287-93.542 8.464-22.751 21.359-42.111 37.749-57.861l0.051-0.048c15.883-16.278 35.241-29.089 56.882-37.242l1.078-0.356c17.64-6.905 44.453-15.12 93.492-17.338 53.172-2.318 69.149-2.923 203.615-2.923 134.669 0 150.645 0.605 203.615 2.923 49.241 2.167 75.801 10.433 93.542 17.338 21.823 8.064 41.73 20.866 57.859 37.599 16.733 16.38 29.535 36.036 37.649 57.96 6.855 17.64 15.12 44.453 17.287 93.492 2.37 53.172 2.973 69.098 2.973 203.615 0 134.467-0.605 150.191-2.973 203.414z"></path>
<path d="M514.123 253.404c-142.984 0.057-258.875 115.968-258.904 258.951v0.003c2.867 140.829 117.707 253.896 258.953 253.896s256.088-113.066 258.95-253.628l0.004-0.267c-0.028-143.005-115.948-258.925-258.95-258.953h-0.003zM514.123 680.291c-92.762-0.015-167.957-75.218-167.957-167.982 0-92.774 75.209-167.982 167.982-167.982 0.009 0 0.017 0 0.026 0h-0.001c92.789 0 168.008 75.22 168.008 168.008s-75.22 168.008-168.008 168.008v0zM843.79 243.174c0 33.402-27.078 60.48-60.48 60.48s-60.48-27.078-60.48-60.48v0c0-33.402 27.078-60.48 60.48-60.48s60.48 27.078 60.48 60.48v0z"></path>
</svg>
