<!-- Generated by IcoMoon.io -->
<svg version="1.1" xmlns="http://www.w3.org/2000/svg" width="1024" height="1024" viewBox="0 0 1024 1024">
<title></title>
<g id="icomoon-ignore">
</g>
<path fill="#afb1b8" d="M1024.525 194.609c-35.219 15.795-76.079 27.443-118.87 32.916l-2.177 0.227c43.544-26.144 76.256-66.53 91.994-114.602l0.418-1.477c-38.339 23.131-82.963 40.764-130.498 50.363l-2.69 0.454c-38.413-40.946-92.862-66.454-153.269-66.454-115.967 0-209.976 94.010-209.976 209.976 0 0.041 0 0.081 0 0.122v-0.006c0 16.649 1.383 32.682 4.866 47.897-174.63-8.504-329.129-92.207-432.913-219.658-18.058 30.389-28.775 66.975-28.892 106.057v0.033c0 72.741 37.498 137.235 93.283 174.528-34.937-0.962-67.467-10.415-95.864-26.357l1.044 0.539v2.305c0.093 101.329 71.599 185.93 166.897 206.196l1.381 0.246c-15.968 4.365-34.302 6.872-53.222 6.872-0.649 0-1.298-0.003-1.946-0.009l0.099 0.001c-13.421 0-26.996-0.768-39.752-3.586 27.201 83.191 104.399 144.356 196.248 146.302-70.909 55.891-161.537 89.646-260.049 89.646-0.135 0-0.271 0-0.406 0h0.021c-0.59 0.003-1.287 0.005-1.985 0.005-17.014 0-33.775-1.081-50.219-3.179l1.951 0.203c90.49 59.103 201.286 94.259 320.292 94.259 0.676 0 1.351-0.001 2.026-0.003h-0.105c386.502 0 597.81-320.164 597.81-597.708 0-9.221-0.307-18.237-0.768-27.15 41.579-29.957 76.534-66.070 104.319-107.406l0.951-1.501z"></path>
</svg>
